<svg xmlns="http://www.w3.org/2000/svg" xmlns:xlink="http://www.w3.org/1999/xlink" version="1.1" x="0px" y="0px" width="100px" height="100px" viewBox="0 0 100 100" enable-background="new 0 0 100 100" xml:space="preserve"><style>.style0{fill:	#000000;}</style><g><path d="M75.132 54.237c1.607-9.476-2.288-19.452-10.776-25.174c-8.488-5.722-19.197-5.591-27.378-0.548 c-14.621-6.995-26.376-9.164-29.453-4.599C3.7 29.6 14.5 43.8 32.5 57.548c0.028 0 0.1 0 0.1 0.1 c0.593 0.5 1.2 0.9 1.8 1.36c0.083 0.1 0.2 0.1 0.2 0.188c0.546 0.4 1.1 0.8 1.7 1.2 c0.148 0.1 0.3 0.2 0.4 0.322c0.528 0.4 1.1 0.8 1.6 1.133c0.177 0.1 0.3 0.2 0.5 0.4 c0.713 0.5 1.4 1 2.2 1.483c0.732 0.5 1.5 1 2.2 1.454c0.144 0.1 0.3 0.2 0.4 0.3 c0.592 0.4 1.2 0.8 1.8 1.138c0.118 0.1 0.2 0.1 0.4 0.219c0.618 0.4 1.2 0.8 1.9 1.1 c0.078 0 0.2 0.1 0.2 0.14c0.657 0.4 1.3 0.8 2 1.18c0.031 0 0.1 0 0.1 0.1 c19.483 11.5 36.7 16.2 40.5 10.526C93.52 75.2 87.1 65.2 75.1 54.237z M21.145 31.4 c1.19-1.766 5.329-1.304 11.1 0.865c-1.063 1.085-2.048 2.275-2.928 3.581c-1.248 1.852-2.209 3.81-2.91 5.8 C22.021 37 19.9 33.2 21.1 31.439z M78.359 70.012c-1.218 1.807-5.519 1.286-11.488-1.015 c1.604-1.405 3.059-3.031 4.307-4.883c0.88-1.305 1.614-2.664 2.221-4.058C77.569 64.6 79.5 68.2 78.4 70.012z" class="style0"/><path d="M25.25 53.613c0.985 6.8 4.7 13.2 10.9 17.323c6.148 4.1 13.5 5.2 20.1 3.6 c-5.164-2.679-10.601-5.899-16.086-9.597C34.694 61.2 29.7 57.4 25.2 53.613z" class="style0"/></g></svg>